<?xml version="1.0" encoding="UTF-8"?>
<svg version="1.1" xmlns="http://www.w3.org/2000/svg" width="784" height="901">
<path d="M0 0 C1.08312469 -0.00570007 2.16624939 -0.01140015 3.28219604 -0.01727295 C5.56979412 -0.02667317 7.85740542 -0.03323699 10.14501953 -0.03710938 C13.55917711 -0.04671184 16.9727046 -0.07774087 20.38671875 -0.109375 C39.48782082 -0.20168384 58.2131376 1.54801504 76.9296875 5.453125 C78.4602478 5.76890503 78.4602478 5.76890503 80.02172852 6.09106445 C148.21587005 20.59856804 217.08217473 58.49206142 259.4921875 115.203125 C260.33054257 116.28920656 261.16909705 117.37513421 262.0078125 118.4609375 C299.4921875 167.63077986 299.4921875 167.63077986 299.4921875 189.203125 C284.01963662 189.53087456 268.54734681 189.77738388 253.07213783 189.92849541 C245.88561265 190.00054267 238.70124978 190.09866224 231.51611328 190.25927734 C225.24973612 190.39928732 218.9849249 190.48924417 212.71702707 190.52036393 C209.40012425 190.53854799 206.08871748 190.58836094 202.77299881 190.68334579 C182.59542067 191.23823844 182.59542067 191.23823844 177.44853973 187.86289215 C174.20521667 184.68645808 172.22998694 181.11623066 170.39772606 177.00242615 C168.86239346 173.951727 166.7016388 171.54622329 164.4921875 168.953125 C163.99799316 168.36885742 163.50379883 167.78458984 162.99462891 167.18261719 C127.96769642 127.85272055 82.47950721 102.64976074 29.4921875 98.203125 C-26.0064084 95.1746572 -78.7733217 112.24613512 -120.5078125 149.203125 C-121.425625 149.99847656 -122.3434375 150.79382813 -123.2890625 151.61328125 C-154.12113526 178.6842126 -172.80735359 218.4906482 -180.5078125 258.203125 C-180.67007324 258.98429687 -180.83233398 259.76546875 -180.99951172 260.5703125 C-186.68289497 288.81713781 -185.56944059 321.14156969 -179.5078125 349.203125 C-179.29350586 350.19747559 -179.07919922 351.19182617 -178.85839844 352.21630859 C-170.57229571 389.25048388 -153.27897774 420.53635741 -127.5078125 448.203125 C-126.82332031 448.94175781 -126.13882813 449.68039062 -125.43359375 450.44140625 C-90.44388735 486.85398426 -38.4172652 506.00454055 11.37890625 507.19921875 C44.59166716 507.49561691 77.62283677 500.80545224 107.4921875 486.203125 C108.47179443 485.72770264 108.47179443 485.72770264 109.47119141 485.24267578 C147.37343805 466.60555272 178.47646629 434.36565498 194.4921875 395.203125 C196.4721875 389.263125 196.4721875 389.263125 198.4921875 383.203125 C149.9821875 382.873125 101.4721875 382.543125 51.4921875 382.203125 C51.4921875 352.173125 51.4921875 322.143125 51.4921875 291.203125 C141.5821875 291.203125 231.6721875 291.203125 324.4921875 291.203125 C324.4921875 325.96225688 324.4921875 325.96225688 323.2421875 336.640625 C323.11158936 337.85508301 322.98099121 339.06954102 322.84643555 340.32080078 C321.5631842 351.6995089 319.68800339 362.96739175 317.4921875 374.203125 C318.71228516 374.21714355 318.71228516 374.21714355 319.95703125 374.23144531 C367.54175796 374.91390343 411.40821073 385.32076155 445.7980957 420.08935547 C469.93307599 445.37503005 482.4921875 480.51554003 482.4921875 515.203125 C456.0921875 515.203125 429.6921875 515.203125 402.4921875 515.203125 C400.1821875 507.283125 397.8721875 499.363125 395.4921875 491.203125 C387.67852452 472.42512848 377.83427187 458.73836916 358.7421875 450.453125 C337.61966154 442.32907655 313.65443296 442.84063428 292.98046875 452.01953125 C292.15933594 452.41011719 291.33820312 452.80070312 290.4921875 453.203125 C289.47318359 453.55890625 289.47318359 453.55890625 288.43359375 453.921875 C285.37133849 455.94284024 283.91669633 459.03180681 282.1171875 462.140625 C274.36653765 475.00856782 265.6137202 487.55069521 255.06640625 498.29296875 C249.68891722 504.81801127 252.10524516 518.2908212 252.4921875 526.203125 C254.1998498 540.8827541 262.32055254 552.8934292 273.4921875 562.203125 C295.28883705 578.732803 322.75955308 587.79871496 348.16305542 597.10388184 C365.34617242 603.40068191 382.1109304 609.99445848 398.4921875 618.203125 C399.5013623 618.70295898 400.51053711 619.20279297 401.55029297 619.71777344 C413.73561175 625.782551 425.50037205 632.15149413 436.4921875 640.203125 C437.07226562 640.62384277 437.65234375 641.04456055 438.25 641.47802734 C465.88062209 661.72171826 485.11119526 689.24429188 490.71850586 723.47265625 C493.28477891 742.90154172 492.68393044 764.07857744 488.4921875 783.203125 C488.34765137 783.87005371 488.20311523 784.53698242 488.05419922 785.22412109 C482.02349051 812.02504471 469.29698107 835.27664199 450.4921875 855.203125 C449.81929687 855.94046875 449.14640625 856.6778125 448.453125 857.4375 C434.1235232 872.57213561 415.06184465 883.42686342 395.4921875 890.203125 C394.76612305 890.45690918 394.04005859 890.71069336 393.29199219 890.97216797 C345.38867326 907.36227942 288.65266386 905.02116582 242.9140625 883.0234375 C218.86015205 871.10970293 198.28732739 853.3863232 184.4921875 830.203125 C183.84926758 829.13336426 183.84926758 829.13336426 183.19335938 828.04199219 C171.95117629 808.98389493 165.66701555 788.02122264 162.4921875 766.203125 C162.3876123 765.54425293 162.28303711 764.88538086 162.17529297 764.20654297 C161.06396018 756.13730057 161.4921875 748.52168183 161.4921875 740.203125 C188.2221875 740.203125 214.9521875 740.203125 242.4921875 740.203125 C243.4821875 746.803125 244.4721875 753.403125 245.4921875 760.203125 C251.56413325 784.49090799 262.73376516 805.73362546 284.4921875 819.203125 C304.82508211 830.35342205 328.09166151 833.78512288 350.53125 827.45703125 C371.32645706 821.07289257 388.93252734 808.3828232 399.8125 789.421875 C409.82615461 770.23291826 413.17598022 748.68212672 406.74609375 727.71875 C403.22764598 717.85394317 397.86455972 710.57549722 390.4921875 703.203125 C389.86570312 702.57664062 389.23921875 701.95015625 388.59375 701.3046875 C364.6148065 678.94457563 326.87933313 669.42721306 296.51437378 658.96899414 C262.91108645 647.38687992 231.54818515 634.03927257 205.4921875 609.203125 C204.90695312 608.68105469 204.32171875 608.15898438 203.71875 607.62109375 C190.70870123 595.55778562 182.48428146 579.22733773 175.4921875 563.203125 C174.38746094 563.80898438 173.28273438 564.41484375 172.14453125 565.0390625 C123.84586066 591.20062263 70.07847936 605.40482764 15.0546875 605.453125 C13.99711746 605.45413712 13.99711746 605.45413712 12.91818237 605.45516968 C-72.05019809 605.32813324 -149.19473926 571.56641122 -209.3828125 512.453125 C-212.92111479 508.8375297 -216.25138213 505.07386367 -219.5078125 501.203125 C-219.96961914 500.6551123 -220.43142578 500.10709961 -220.90722656 499.54248047 C-273.8669844 436.39558033 -298.43209576 354.91290249 -291.56225586 272.9362793 C-288.03769671 236.07299819 -278.69107556 200.52700784 -262.5078125 167.203125 C-262.10755859 166.37135742 -261.70730469 165.53958984 -261.29492188 164.68261719 C-249.62188002 140.6839461 -234.38606628 118.45119345 -216.1171875 99 C-213.73303521 96.44453138 -211.43039144 93.83611692 -209.1328125 91.203125 C-199.6413583 80.66643073 -188.78555943 71.74406454 -177.5078125 63.203125 C-176.93369629 62.76145996 -176.35958008 62.31979492 -175.76806641 61.86474609 C-126.41152359 23.94396888 -62.50581774 0.2628729 0 0 Z " fill="#041E42" transform="translate(292.5078125,-0.203125)"/>
<path d="M0 0 C1.65 0 3.3 0 5 0 C6.65 4.62 8.3 9.24 10 14 C13.12093247 7.05111977 13.12093247 7.05111977 16 0 C17.65 0 19.3 0 21 0 C21.90041311 8.02332397 22.11547323 15.92970447 22 24 C20.68 24 19.36 24 18 24 C17.67 19.38 17.34 14.76 17 10 C15.35 14.29 13.7 18.58 12 23 C10.68 23 9.36 23 8 23 C6.68 19.04 5.36 15.08 4 11 C3.855625 12.77375 3.71125 14.5475 3.5625 16.375 C3.125 21.75 3.125 21.75 2 24 C1.01 24 0.02 24 -1 24 C-1.11547323 15.92970447 -0.90041311 8.02332397 0 0 Z " fill="#041E42" transform="translate(762,877)"/>
<path d="M0 0 C5.61 0 11.22 0 17 0 C17 1.32 17 2.64 17 4 C14.69 4 12.38 4 10 4 C10 10.6 10 17.2 10 24 C8.68 24 7.36 24 6 24 C6 17.4 6 10.8 6 4 C4.02 4 2.04 4 0 4 C0 2.68 0 1.36 0 0 Z " fill="#041E42" transform="translate(743,877)"/>
</svg>
